<?xml version="1.0" encoding="UTF-8" standalone="no"?>
<svg
   xmlns:dc="http://purl.org/dc/elements/1.1/"
   xmlns:cc="http://creativecommons.org/ns#"
   xmlns:rdf="http://www.w3.org/1999/02/22-rdf-syntax-ns#"
   xmlns:svg="http://www.w3.org/2000/svg"
   xmlns="http://www.w3.org/2000/svg"
   xmlns:sodipodi="http://sodipodi.sourceforge.net/DTD/sodipodi-0.dtd"
   xmlns:inkscape="http://www.inkscape.org/namespaces/inkscape"
   inkscape:version="1.0 (4035a4fb49, 2020-05-01)"
   sodipodi:docname="delete-icon.svg"
   xml:space="preserve"
   style="enable-background:new 0 0 459 459;"
   viewBox="0 0 459 459"
   y="0px"
   x="0px"
   id="Layer_1"
   version="1.1"><metadata
   id="metadata43"><rdf:RDF><cc:Work
       rdf:about=""><dc:format>image/svg+xml</dc:format><dc:type
         rdf:resource="http://purl.org/dc/dcmitype/StillImage" /><dc:title></dc:title></cc:Work></rdf:RDF></metadata><defs
   id="defs41" /><sodipodi:namedview
   inkscape:current-layer="Layer_1"
   inkscape:window-maximized="1"
   inkscape:window-y="-12"
   inkscape:window-x="98"
   inkscape:cy="241.65859"
   inkscape:cx="89.295535"
   inkscape:zoom="0.91503268"
   showgrid="false"
   id="namedview39"
   inkscape:window-height="1040"
   inkscape:window-width="1810"
   inkscape:pageshadow="2"
   inkscape:pageopacity="0"
   guidetolerance="10"
   gridtolerance="10"
   objecttolerance="10"
   borderopacity="1"
   bordercolor="#666666"
   pagecolor="#ffffff" />
<g
   style="fill:#83c5be;fill-opacity:1"
   id="g6">
	<g
   style="fill:#83c5be;fill-opacity:1"
   id="g4">
		<path
   style="fill:#83c5be;fill-opacity:1"
   id="path2"
   d="M 229.5,0 C 102.751,0 0,102.751 0,229.5 0,356.249 102.751,459 229.5,459 356.249,459 459,356.249 459,229.5 459,102.751 356.249,0 229.5,0 Z m 77.605,271.629 c 9.797,9.797 9.797,25.68 0,35.477 -4.898,4.898 -11.318,7.347 -17.738,7.347 -6.42,0 -12.84,-2.449 -17.738,-7.347 L 229.5,264.977 187.372,307.106 c -4.898,4.898 -11.318,7.347 -17.738,7.347 -6.42,0 -12.84,-2.449 -17.738,-7.347 -9.797,-9.796 -9.797,-25.68 0,-35.477 L 194.025,229.5 151.896,187.371 c -9.797,-9.797 -9.797,-25.68 0,-35.477 9.797,-9.797 25.68,-9.797 35.477,0 l 42.128,42.129 42.128,-42.129 c 9.797,-9.797 25.68,-9.797 35.477,0 9.797,9.796 9.797,25.68 0,35.477 l -42.13,42.129 z" />
	</g>
</g>
<g
   id="g8">
</g>
<g
   id="g10">
</g>
<g
   id="g12">
</g>
<g
   id="g14">
</g>
<g
   id="g16">
</g>
<g
   id="g18">
</g>
<g
   id="g20">
</g>
<g
   id="g22">
</g>
<g
   id="g24">
</g>
<g
   id="g26">
</g>
<g
   id="g28">
</g>
<g
   id="g30">
</g>
<g
   id="g32">
</g>
<g
   id="g34">
</g>
<g
   id="g36">
</g>
</svg>
