<?xml version="1.0" encoding="UTF-8" standalone="no"?>
<svg
   xmlns:dc="http://purl.org/dc/elements/1.1/"
   xmlns:cc="http://creativecommons.org/ns#"
   xmlns:rdf="http://www.w3.org/1999/02/22-rdf-syntax-ns#"
   xmlns:svg="http://www.w3.org/2000/svg"
   xmlns="http://www.w3.org/2000/svg"
   xmlns:sodipodi="http://sodipodi.sourceforge.net/DTD/sodipodi-0.dtd"
   xmlns:inkscape="http://www.inkscape.org/namespaces/inkscape"
   inkscape:version="1.0 (4035a4fb49, 2020-05-01)"
   sodipodi:docname="edit-icon.svg"
   xml:space="preserve"
   style="enable-background:new 0 0 330 330;"
   viewBox="0 0 330 330"
   y="0px"
   x="0px"
   id="Layer_1"
   version="1.1"><metadata
   id="metadata40"><rdf:RDF><cc:Work
       rdf:about=""><dc:format>image/svg+xml</dc:format><dc:type
         rdf:resource="http://purl.org/dc/dcmitype/StillImage" /><dc:title></dc:title></cc:Work></rdf:RDF></metadata><defs
   id="defs38" /><sodipodi:namedview
   inkscape:current-layer="Layer_1"
   inkscape:window-maximized="1"
   inkscape:window-y="-12"
   inkscape:window-x="98"
   inkscape:cy="61.600343"
   inkscape:cx="104.46933"
   inkscape:zoom="0.89995409"
   showgrid="false"
   id="namedview36"
   inkscape:window-height="1040"
   inkscape:window-width="1810"
   inkscape:pageshadow="2"
   inkscape:pageopacity="0"
   guidetolerance="10"
   gridtolerance="10"
   objecttolerance="10"
   borderopacity="1"
   bordercolor="#666666"
   pagecolor="#ffffff" />
<g
   style="fill:#83c5be;fill-opacity:1"
   id="XMLID_23_">
	<path
   style="fill:#83c5be;fill-opacity:1"
   d="m 75,180 v 60 c 0,8.284 6.716,15 15,15 h 60 c 3.978,0 7.793,-1.581 10.606,-4.394 l 164.999,-165 c 5.858,-5.858 5.858,-15.355 0,-21.213 l -60,-60 C 262.794,1.581 258.978,0 255,0 c -3.978,0 -7.794,1.581 -10.606,4.394 l -165,165 C 76.58,172.206 75,176.022 75,180 Z m 30,6.213 150,-150 38.787,38.787 -150,150 H 105 Z"
   id="XMLID_24_" />
	<path
   style="fill:#83c5be;fill-opacity:1"
   d="m 315,150.001 c -8.284,0 -15,6.716 -15,15 V 300 H 30 V 30 h 135 c 8.284,0 15,-6.716 15,-15 C 180,6.716 173.284,0 165,0 H 15 C 6.716,0 0,6.716 0,15 v 300 c 0,8.284 6.716,15 15,15 h 300 c 8.284,0 15,-6.716 15,-15 V 165.001 c 0,-8.285 -6.716,-15 -15,-15 z"
   id="XMLID_27_" />
</g>
<g
   id="g5">
</g>
<g
   id="g7">
</g>
<g
   id="g9">
</g>
<g
   id="g11">
</g>
<g
   id="g13">
</g>
<g
   id="g15">
</g>
<g
   id="g17">
</g>
<g
   id="g19">
</g>
<g
   id="g21">
</g>
<g
   id="g23">
</g>
<g
   id="g25">
</g>
<g
   id="g27">
</g>
<g
   id="g29">
</g>
<g
   id="g31">
</g>
<g
   id="g33">
</g>
</svg>
